{"title":"Inception (2010) DVDRip 7SPEED","uid":5930312,"size":746874259,"categoryP":"video","categoryS":"movies","magnet":"?xt=urn:btih:afb5aea438cb605d954e22788714a367efe52d50&amp;dn=Inception+%282010%29+DVDRip+7SPEED&amp;tr=udp%3A%2F%2Ftracker.openbittorrent.com%3A80&amp;tr=udp%3A%2F%2Fopen.demonii.com%3A1337&amp;tr=udp%3A%2F%2Ftracker.coppersurfer.tk%3A6969&amp;tr=udp%3A%2F%2Fexodus.desync.com%3A6969","seeders":0,"leechers":1,"uploader":"IwannaFan2","files":7,"time":1288753953,"description":"Filename:\nInception (2010) DVDRip 7SPEED\n &lt;a href=&quot;\nhttp://www.imdb.com/title/tt1375666/&quot; rel=&quot;nofollow&quot; target=&quot;_NEW&quot;&gt;\nhttp://www.imdb.com/title/tt1375666/&lt;/a&gt;\n\nVideo\nID                               : 0\nFormat                           : MPEG-4 Visual\nFormat settings, BVOP            : Yes\nFormat settings, QPel            : No\nFormat settings, GMC             : No warppoints\nFormat settings, Matrix          : Default (H.263)\nCodec ID                         : DX50\nCodec ID/Hint                    : DivX 5\nDuration                         : 2h 28mn\nBit rate                         : 528 Kbps\nWidth                            : 640 pixels\nHeight                           : 480 pixels\nDisplay aspect ratio             : 4:3\nFrame rate                       : 30.000 fps\nResolution                       : 24 bits\nColorimetry                      : 4:2:0\nScan type                        : Progressive\nBits/(Pixel*Frame)               : 0.057\nStream size                      : 559 MiB (79%)\nWriting library                  : DivX 2151n\n\nAudio\nID                               : 1\nFormat                           : MPEG Audio\nFormat version                   : Version 1\nFormat profile                   : Layer 3\nCodec ID                         : 55\nCodec ID/Hint                    : MP3\nDuration                         : 2h 28mn\nBit rate mode                    : Constant\nBit rate                         : 128 Kbps\nChannel(s)                       : 2 channels\nSampling rate                    : 48.0 KHz\nResolution                       : 16 bits\nStream size                      : 136 MiB (19%)\nAlignment                        : Aligned on interleaves\nInterleave, duration             : 33 ms (1.00 video frame)\n\nPlot:\nIn a world where technology exists to enter the human mind through dream invasion, a highly skilled thief is given a final chance at redemption which involves executing his toughest job till date, Inception.","torrent":{"xt":"urn:btih:afb5aea438cb605d954e22788714a367efe52d50","amp;dn":"Inception+%282010%29+DVDRip+7SPEED","amp;tr":["udp%3A%2F%2Ftracker.openbittorrent.com%3A80","udp%3A%2F%2Fopen.demonii.com%3A1337","udp%3A%2F%2Ftracker.coppersurfer.tk%3A6969","udp%3A%2F%2Fexodus.desync.com%3A6969"],"infoHash":"afb5aea438cb605d954e22788714a367efe52d50","infoHashBuffer":{"type":"Buffer","data":[175,181,174,164,56,203,96,93,149,78,34,120,135,20,163,103,239,229,45,80]},"announce":[],"urlList":[]}}